<svg xmlns="http://www.w3.org/2000/svg" version="1.1" xmlns:xlink="http://www.w3.org/1999/xlink" xmlns:svgjs="http://svgjs.dev/svgjs" width="2000" height="353" viewBox="0 0 2000 353"><g transform="matrix(1,0,0,1,-1.2121212121212466,-0.24895579010956226)"><svg viewBox="0 0 396 70" data-background-color="#ffffff" preserveAspectRatio="xMidYMid meet" height="353" width="2000" xmlns="http://www.w3.org/2000/svg" xmlns:xlink="http://www.w3.org/1999/xlink"><g id="tight-bounds" transform="matrix(1,0,0,1,0.2400000000000091,0.04936800370444416)"><svg viewBox="0 0 395.52 69.90126399259108" height="69.90126399259108" width="395.52"><g><svg viewBox="0 0 497.3130685935484 87.89141407444171" height="69.90126399259108" width="395.52"><g transform="matrix(1,0,0,1,101.7930685935484,14.502530858560807)"><svg viewBox="0 0 395.52 58.8863523573201" height="58.8863523573201" width="395.52"><g id="textblocktransform"><svg viewBox="0 0 395.52 58.8863523573201" height="58.8863523573201" width="395.52" id="textblock"><g><svg viewBox="0 0 395.52 58.8863523573201" height="58.8863523573201" width="395.52"><g transform="matrix(1,0,0,1,0,0)"><svg width="395.52" viewBox="1.05 -41.5 362.67 54" height="58.8863523573201" data-palette-color="#1f55b3"><path d="M38.8-38.5L39.3-28.95 37.25-28.95Q37.1-31.1 36.55-32.55 36-34 34.98-34.83 33.95-35.65 32.4-36 30.85-36.35 28.7-36.35L28.7-36.35Q26.85-36.35 25.73-36.27 24.6-36.2 24-36 23.4-35.8 23.23-35.52 23.05-35.25 23.05-34.8L23.05-34.8 23.05-8.05Q23.05-6.45 23.28-5.3 23.5-4.15 24.18-3.43 24.85-2.7 26.13-2.33 27.4-1.95 29.5-1.9L29.5-1.9 29.5 0 10.6 0 10.6-1.9Q12.7-1.95 14-2.33 15.3-2.7 15.98-3.43 16.65-4.15 16.88-5.3 17.1-6.45 17.1-8.05L17.1-8.05 17.1-34.8Q17.1-35.25 16.93-35.52 16.75-35.8 16.23-36 15.7-36.2 14.75-36.27 13.8-36.35 12.2-36.35L12.2-36.35Q10.25-36.35 8.58-36.2 6.9-36.05 5.68-35.33 4.45-34.6 3.7-33.1 2.95-31.6 2.9-28.95L2.9-28.95 1.05-28.95 1.05-38.5 38.8-38.5ZM47.65-9.65L47.65-7.95Q47.65-5.9 47.75-4.7 47.85-3.5 48.27-2.88 48.7-2.25 49.5-2.05 50.3-1.85 51.75-1.75L51.75-1.75 51.75 0 38.45 0 38.45-1.75Q39.9-1.8 40.75-2.02 41.6-2.25 42.05-2.85 42.5-3.45 42.62-4.58 42.75-5.7 42.75-7.6L42.75-7.6 42.75-13.45Q42.75-16.85 42.67-18.75 42.6-20.65 42.17-21.55 41.75-22.45 40.85-22.63 39.95-22.8 38.35-22.8L38.35-22.8 38.35-24.55 47.1-26.45 47.8-20.25 48-20.25Q48.65-21.75 49.62-23 50.6-24.25 51.75-25.13 52.9-26 54.15-26.5 55.4-27 56.7-27L56.7-27Q58.3-27 59.22-26.23 60.15-25.45 60.15-24.15L60.15-24.15Q60.15-22.95 59.4-22.28 58.65-21.6 57.25-21.6L57.25-21.6Q56.45-21.6 55.9-21.8 55.35-22 54.92-22.23 54.5-22.45 54.12-22.65 53.75-22.85 53.3-22.85L53.3-22.85Q51.95-22.85 50.6-21.13 49.25-19.4 48.5-16.75L48.5-16.75Q48.1-15.3 47.87-13.48 47.65-11.65 47.65-9.65L47.65-9.65ZM77.85-10.85L77.85-14.8Q75-13.7 73.02-12.65 71.05-11.6 69.85-10.55 68.65-9.5 68.12-8.45 67.6-7.4 67.6-6.3L67.6-6.3Q67.6-4.65 68.7-3.6 69.8-2.55 71.6-2.55L71.6-2.55Q72.9-2.55 74.02-3.2 75.15-3.85 76-4.98 76.85-6.1 77.35-7.63 77.85-9.15 77.85-10.85L77.85-10.85ZM70.65-13.8L77.85-16.95 77.85-19Q77.85-25.1 72.65-25.1L72.65-25.1Q71.8-25.1 71.2-24.95 70.6-24.8 70.2-24.45 69.8-24.1 69.47-23.45 69.15-22.8 68.85-21.85L68.85-21.85Q68.3-20.4 67.77-19.93 67.25-19.45 66.25-19.45L66.25-19.45Q63.75-19.45 63.75-21.95L63.75-21.95Q63.75-24.35 66.3-25.68 68.85-27 73.55-27L73.55-27Q78.55-27 80.65-25.23 82.75-23.45 82.75-19.2L82.75-19.2 82.75-8Q82.75-2.3 85-2.3L85-2.3Q85.7-2.3 86.35-2.48 87-2.65 87.45-3.4L87.45-3.4 88.15-2.2Q87.55-1.05 85.95-0.28 84.35 0.5 82.6 0.5L82.6 0.5Q80.4 0.5 79.32-0.9 78.25-2.3 78.25-4.85L78.25-4.85 78-4.85Q76.7-2.4 74.4-0.98 72.1 0.45 69.3 0.45L69.3 0.45Q66.15 0.45 64.35-1.15 62.55-2.75 62.55-5.45L62.55-5.45Q62.55-6.65 62.97-7.75 63.4-8.85 64.35-9.85 65.3-10.85 66.85-11.83 68.4-12.8 70.65-13.8L70.65-13.8ZM100.74 0.55L92.29-20.3Q91.69-21.8 91.22-22.68 90.74-23.55 90.19-24 89.64-24.45 88.97-24.58 88.29-24.7 87.34-24.75L87.34-24.75 87.34-26.5 100.59-26.5 100.59-24.75Q99.59-24.7 98.94-24.65 98.29-24.6 97.92-24.43 97.54-24.25 97.39-23.93 97.24-23.6 97.24-23L97.24-23Q97.24-22.15 97.47-21.4 97.69-20.65 97.94-19.9L97.94-19.9 103.24-5.4 103.44-5.4 107.99-16.15Q109.04-18.65 109.49-20.15 109.94-21.65 109.94-22.8L109.94-22.8Q109.94-23.95 109.34-24.35 108.74-24.75 106.74-24.75L106.74-24.75 106.74-26.5 116.69-26.5 116.69-24.75Q115.89-24.75 115.24-24.35 114.59-23.95 114.09-23.35L114.09-23.35Q113.69-22.8 113.27-21.88 112.84-20.95 112.42-19.95 111.99-18.95 111.64-17.98 111.29-17 110.99-16.4L110.99-16.4 103.64 0.55 100.74 0.55ZM141.04-6.05L142.59-4.65Q138.34 0.5 132.04 0.5L132.04 0.5Q129.09 0.5 126.69-0.48 124.29-1.45 122.57-3.23 120.84-5 119.89-7.48 118.94-9.95 118.94-12.95L118.94-12.95Q118.94-16 119.94-18.6 120.94-21.2 122.77-23.05 124.59-24.9 127.12-25.95 129.64-27 132.64-27L132.64-27Q137.49-27 140.14-24.38 142.79-21.75 142.79-16.85L142.79-16.85Q142.79-16.15 142.52-16 142.24-15.85 141.24-15.85L141.24-15.85 124.79-15.85Q124.69-15.45 124.64-14.88 124.59-14.3 124.59-13.6L124.59-13.6Q124.59-11 125.22-8.88 125.84-6.75 127.02-5.25 128.19-3.75 129.82-2.93 131.44-2.1 133.44-2.1L133.44-2.1Q135.54-2.1 137.34-3.03 139.14-3.95 141.04-6.05L141.04-6.05ZM125.14-18.15L134.34-18.15Q135.34-18.15 135.94-18.2 136.54-18.25 136.84-18.4 137.14-18.55 137.24-18.82 137.34-19.1 137.34-19.55L137.34-19.55Q137.34-21.85 135.87-23.23 134.39-24.6 131.84-24.6L131.84-24.6Q126.44-24.6 125.14-18.15L125.14-18.15ZM155.59-41.5L155.59-7.8Q155.59-5.9 155.74-4.75 155.89-3.6 156.36-2.95 156.84-2.3 157.71-2.05 158.59-1.8 160.04-1.75L160.04-1.75 160.04 0 146.24 0 146.24-1.75Q147.74-1.8 148.64-2.08 149.54-2.35 150.06-2.95 150.59-3.55 150.76-4.63 150.94-5.7 150.94-7.45L150.94-7.45 150.94-29Q150.94-31.7 150.86-33.52 150.79-35.35 150.64-36L150.64-36Q150.39-37.15 149.46-37.55 148.54-37.95 146.14-37.95L146.14-37.95 146.14-39.65 155.59-41.5ZM188.69-8.95L188.89-8.95 201.89-38.5 213.09-38.5 213.09-36.6Q211.49-36.55 210.51-36.2 209.54-35.85 209.01-35.02 208.49-34.2 208.31-32.75 208.14-31.3 208.14-29.05L208.14-29.05 208.14-9.45Q208.14-6.95 208.34-5.5 208.54-4.05 209.11-3.25 209.69-2.45 210.76-2.2 211.84-1.95 213.59-1.9L213.59-1.9 213.59 0 197.39 0 197.39-1.9Q199.14-1.95 200.21-2.23 201.29-2.5 201.89-3.25 202.49-4 202.69-5.38 202.89-6.75 202.89-9.1L202.89-9.1 202.89-32.3 202.39-32.3 187.79 0.5 186.69 0.5 172.34-32.3 172.14-32.3 172.14-9.45Q172.14-6.95 172.34-5.5 172.54-4.05 173.11-3.25 173.69-2.45 174.76-2.2 175.84-1.95 177.59-1.9L177.59-1.9 177.59 0 163.64 0 163.64-1.9Q165.39-1.95 166.46-2.23 167.54-2.5 168.14-3.25 168.74-4 168.94-5.38 169.14-6.75 169.14-9.1L169.14-9.1 169.14-29.4Q169.14-31.5 168.96-32.88 168.79-34.25 168.26-35.05 167.74-35.85 166.74-36.18 165.74-36.5 164.14-36.6L164.14-36.6 164.14-38.5 176.09-38.5 188.69-8.95ZM233.33-10.85L233.33-14.8Q230.48-13.7 228.51-12.65 226.53-11.6 225.33-10.55 224.13-9.5 223.61-8.45 223.08-7.4 223.08-6.3L223.08-6.3Q223.08-4.65 224.18-3.6 225.28-2.55 227.08-2.55L227.08-2.55Q228.38-2.55 229.51-3.2 230.63-3.85 231.48-4.98 232.33-6.1 232.83-7.63 233.33-9.15 233.33-10.85L233.33-10.85ZM226.13-13.8L233.33-16.95 233.33-19Q233.33-25.1 228.13-25.1L228.13-25.1Q227.28-25.1 226.68-24.95 226.08-24.8 225.68-24.45 225.28-24.1 224.96-23.45 224.63-22.8 224.33-21.85L224.33-21.85Q223.78-20.4 223.26-19.93 222.73-19.45 221.73-19.45L221.73-19.45Q219.23-19.45 219.23-21.95L219.23-21.95Q219.23-24.35 221.78-25.68 224.33-27 229.03-27L229.03-27Q234.03-27 236.13-25.23 238.23-23.45 238.23-19.2L238.23-19.2 238.23-8Q238.23-2.3 240.48-2.3L240.48-2.3Q241.18-2.3 241.83-2.48 242.48-2.65 242.93-3.4L242.93-3.4 243.63-2.2Q243.03-1.05 241.43-0.28 239.83 0.5 238.08 0.5L238.08 0.5Q235.88 0.5 234.81-0.9 233.73-2.3 233.73-4.85L233.73-4.85 233.48-4.85Q232.18-2.4 229.88-0.98 227.58 0.45 224.78 0.45L224.78 0.45Q221.63 0.45 219.83-1.15 218.03-2.75 218.03-5.45L218.03-5.45Q218.03-6.65 218.46-7.75 218.88-8.85 219.83-9.85 220.78-10.85 222.33-11.83 223.88-12.8 226.13-13.8L226.13-13.8ZM254.08-26.8L254.08-22.9 254.28-22.9Q255.88-24.8 257.73-25.9 259.58-27 262.03-27L262.03-27Q264.88-27 267.26-25.98 269.63-24.95 271.38-23.1 273.13-21.25 274.11-18.73 275.08-16.2 275.08-13.2L275.08-13.2Q275.08-10.15 274.08-7.63 273.08-5.1 271.33-3.3 269.58-1.5 267.18-0.5 264.78 0.5 261.98 0.5L261.98 0.5Q259.68 0.5 257.81-0.28 255.93-1.05 254.28-2.8L254.28-2.8 254.28 4.5Q254.28 6.5 254.48 7.7 254.68 8.9 255.28 9.55 255.88 10.2 257.01 10.45 258.13 10.7 259.98 10.75L259.98 10.75 259.98 12.5 244.58 12.5 244.58 10.75Q246.08 10.7 247.01 10.45 247.93 10.2 248.46 9.55 248.98 8.9 249.18 7.78 249.38 6.65 249.38 4.85L249.38 4.85 249.38-13.85Q249.38-16.75 249.31-18.6 249.23-20.45 249.03-21.15L249.03-21.15Q248.78-22.35 247.88-22.78 246.98-23.2 244.48-23.2L244.48-23.2 244.48-24.9 254.08-26.8ZM255.58-21.45L255.58-21.45Q254.93-20.45 254.61-19.07 254.28-17.7 254.28-15.5L254.28-15.5 254.28-11.6Q254.28-10.25 254.36-9.28 254.43-8.3 254.58-7.6 254.73-6.9 254.98-6.35 255.23-5.8 255.63-5.3L255.63-5.3Q256.78-3.7 258.38-2.83 259.98-1.95 261.73-1.95L261.73-1.95Q265.18-1.95 267.31-4.85 269.43-7.75 269.43-13L269.43-13Q269.43-15.6 268.86-17.73 268.28-19.85 267.23-21.38 266.18-22.9 264.71-23.75 263.23-24.6 261.43-24.6L261.43-24.6Q259.63-24.6 258.11-23.78 256.58-22.95 255.58-21.45ZM288.03-26.8L288.03-22.9 288.23-22.9Q289.83-24.8 291.68-25.9 293.53-27 295.98-27L295.98-27Q298.83-27 301.2-25.98 303.58-24.95 305.33-23.1 307.08-21.25 308.05-18.73 309.03-16.2 309.03-13.2L309.03-13.2Q309.03-10.15 308.03-7.63 307.03-5.1 305.28-3.3 303.53-1.5 301.13-0.5 298.73 0.5 295.93 0.5L295.93 0.5Q293.63 0.5 291.75-0.28 289.88-1.05 288.23-2.8L288.23-2.8 288.23 4.5Q288.23 6.5 288.43 7.7 288.63 8.9 289.23 9.55 289.83 10.2 290.95 10.45 292.08 10.7 293.93 10.75L293.93 10.75 293.93 12.5 278.53 12.5 278.53 10.75Q280.03 10.7 280.95 10.45 281.88 10.2 282.4 9.55 282.93 8.9 283.13 7.78 283.33 6.65 283.33 4.85L283.33 4.85 283.33-13.85Q283.33-16.75 283.25-18.6 283.18-20.45 282.98-21.15L282.98-21.15Q282.73-22.35 281.83-22.78 280.93-23.2 278.43-23.2L278.43-23.2 278.43-24.9 288.03-26.8ZM289.53-21.45L289.53-21.45Q288.88-20.45 288.55-19.07 288.23-17.7 288.23-15.5L288.23-15.5 288.23-11.6Q288.23-10.25 288.3-9.28 288.38-8.3 288.53-7.6 288.68-6.9 288.93-6.35 289.18-5.8 289.58-5.3L289.58-5.3Q290.73-3.7 292.33-2.83 293.93-1.95 295.68-1.95L295.68-1.95Q299.13-1.95 301.25-4.85 303.38-7.75 303.38-13L303.38-13Q303.38-15.6 302.8-17.73 302.23-19.85 301.18-21.38 300.13-22.9 298.65-23.75 297.18-24.6 295.38-24.6L295.38-24.6Q293.58-24.6 292.05-23.78 290.53-22.95 289.53-21.45ZM336.03-6.05L337.58-4.65Q333.33 0.5 327.03 0.5L327.03 0.5Q324.08 0.5 321.68-0.48 319.28-1.45 317.55-3.23 315.83-5 314.88-7.48 313.93-9.95 313.93-12.95L313.93-12.95Q313.93-16 314.93-18.6 315.93-21.2 317.75-23.05 319.58-24.9 322.1-25.95 324.63-27 327.63-27L327.63-27Q332.48-27 335.13-24.38 337.78-21.75 337.78-16.85L337.78-16.85Q337.78-16.15 337.5-16 337.23-15.85 336.23-15.85L336.23-15.85 319.78-15.85Q319.68-15.45 319.63-14.88 319.58-14.3 319.58-13.6L319.58-13.6Q319.58-11 320.2-8.88 320.83-6.75 322-5.25 323.18-3.75 324.8-2.93 326.43-2.1 328.43-2.1L328.43-2.1Q330.53-2.1 332.33-3.03 334.13-3.95 336.03-6.05L336.03-6.05ZM320.13-18.15L329.33-18.15Q330.33-18.15 330.93-18.2 331.53-18.25 331.83-18.4 332.13-18.55 332.23-18.82 332.33-19.1 332.33-19.55L332.33-19.55Q332.33-21.85 330.85-23.23 329.38-24.6 326.83-24.6L326.83-24.6Q321.43-24.6 320.13-18.15L320.13-18.15ZM351.22-9.65L351.22-7.95Q351.22-5.9 351.32-4.7 351.42-3.5 351.85-2.88 352.27-2.25 353.07-2.05 353.87-1.85 355.32-1.75L355.32-1.75 355.32 0 342.02 0 342.02-1.75Q343.47-1.8 344.32-2.02 345.17-2.25 345.62-2.85 346.07-3.45 346.2-4.58 346.32-5.7 346.32-7.6L346.32-7.6 346.32-13.45Q346.32-16.85 346.25-18.75 346.17-20.65 345.75-21.55 345.32-22.45 344.42-22.63 343.52-22.8 341.92-22.8L341.92-22.8 341.92-24.55 350.67-26.45 351.37-20.25 351.57-20.25Q352.22-21.75 353.2-23 354.17-24.25 355.32-25.13 356.47-26 357.72-26.5 358.97-27 360.27-27L360.27-27Q361.87-27 362.8-26.23 363.72-25.45 363.72-24.15L363.72-24.15Q363.72-22.95 362.97-22.28 362.22-21.6 360.82-21.6L360.82-21.6Q360.02-21.6 359.47-21.8 358.92-22 358.5-22.23 358.07-22.45 357.7-22.65 357.32-22.85 356.87-22.85L356.87-22.85Q355.52-22.85 354.17-21.13 352.82-19.4 352.07-16.75L352.07-16.75Q351.67-15.3 351.45-13.48 351.22-11.65 351.22-9.65L351.22-9.65Z" opacity="1" transform="matrix(1,0,0,1,0,0)" fill="#1f55b3" class="wordmark-text-0" data-fill-palette-color="primary" id="text-0"></path></svg></g></svg></g></svg></g></svg></g><g><svg viewBox="0 0 87.8914140744417 87.89141407444171" height="87.89141407444171" width="87.8914140744417"><g><svg></svg></g><g id="icon-0"><svg viewBox="0 0 87.8914140744417 87.89141407444171" height="87.89141407444171" width="87.8914140744417"><g><path transform="scale(0.87891,0.87891)" d="M30 100c-16.569 0-30-13.431-30-30v-40c0-16.569 13.431-30 30-30h40c16.569 0 30 13.431 30 30v40c0 16.569-13.431 30-30 30z" fill="#ff585f" fill-rule="nonzero" stroke="none" stroke-width="1" stroke-linecap="butt" stroke-linejoin="miter" stroke-miterlimit="10" stroke-dasharray="" stroke-dashoffset="0" font-family="none" font-weight="none" font-size="none" text-anchor="none" style="mix-blend-mode: normal" data-fill-palette-color="accent"></path></g><g transform="matrix(1,0,0,1,17.578282814888333,22.73925197382659)"><svg viewBox="0 0 52.73484844466503 42.41291012678853" height="42.41291012678853" width="52.73484844466503"><g><svg xmlns="http://www.w3.org/2000/svg" xmlns:xlink="http://www.w3.org/1999/xlink" version="1.1" x="0" y="0" viewBox="0 9.786 100.00034525290005 80.42699999999999" enable-background="new 0 0 100 100" xml:space="preserve" id="dxe-0" width="52.73484844466503" height="42.41291012678853" class="icon-dxe-0" data-fill-palette-color="quaternary"><path d="M49.942 52.994L90.595 51.529C88.068 47.352 87.436 43.698 82.606 43.068 75.377 42.128 68.148 41.185 60.918 40.242L18.843 34.762C20.101 36.792 39.724 53.361 49.942 52.994" fill="#ffffff" data-fill-palette-color="quaternary"></path><path d="M0 9.786C4.391 17.043 26.615 32.858 32.953 33.672 50.283 35.903 67.61 38.132 84.939 40.36 81.546 34.753 80.759 31.01 74.627 29.401L47.91 22.378C31.94 18.182 15.97 13.984 0 9.786" fill="#ffffff" data-fill-palette-color="quaternary"></path><path d="M63.108 66.207L94.349 59.547C92.321 56.201 92.315 54.188 88.522 54.358 82.364 54.631 76.208 54.907 70.051 55.18 58.708 55.686 47.365 56.194 36.023 56.698 37.298 58.064 54.94 67.947 63.108 66.207" fill="#ffffff" data-fill-palette-color="quaternary"></path><path d="M87.682 90.213C93.407 86.494 94.944 82.492 98.201 76.406 101.852 69.582 99.458 68.562 95.38 61.81 94.963 61.122 89.538 62.042 88.927 62.714 88.182 63.532 88.679 68.169 88.633 69.21z" fill="#ffffff" data-fill-palette-color="quaternary"></path><path d="M86.35 63.447C82.555 64.256 77.746 63.638 76.778 67.676L72.658 84.887C81.904 82.678 86.028 71.582 86.35 63.447" fill="#ffffff" data-fill-palette-color="quaternary"></path><path d="M74.666 66.121C65.518 68.074 65.71 70.732 61.787 79.301 68.007 78.711 73.811 71.941 74.666 66.121" fill="#ffffff" data-fill-palette-color="quaternary"></path></svg></g></svg></g></svg></g></svg></g></svg></g><defs></defs></svg><rect width="395.52" height="69.90126399259108" fill="none" stroke="none" visibility="hidden"></rect></g></svg></g></svg>